<?xml version="1.0" standalone="no"?><!DOCTYPE svg PUBLIC "-//W3C//DTD SVG 1.1//EN" "http://www.w3.org/Graphics/SVG/1.1/DTD/svg11.dtd"><svg t="1752824716881" class="icon" viewBox="0 0 1024 1024" version="1.1" xmlns="http://www.w3.org/2000/svg" p-id="1840" xmlns:xlink="http://www.w3.org/1999/xlink" width="200" height="200"><path d="M0 0h1024v1024H0z" fill="#FFFFFF" p-id="1841"></path><path d="M519.3728 955.733333A451.652267 451.652267 0 0 1 68.266667 504.490667a451.447467 451.447467 0 0 1 333.346133-434.9952 35.566933 35.566933 0 0 1 39.253333 53.111466 332.868267 332.868267 0 0 0-51.2 177.220267 334.506667 334.506667 0 0 0 334.165334 334.097067 332.458667 332.458667 0 0 0 177.493333-51.473067 35.498667 35.498667 0 0 1 53.248 39.253333A451.515733 451.515733 0 0 1 519.304533 955.733333z" fill="#8962EC" p-id="1842"></path><path d="M945.493333 385.2288H666.487467l-27.784534-64.989867 167.253334-115.3024H666.555733V131.754667h261.461334L955.733333 196.608l-167.253333 115.370667h157.013333z" fill="#8962EC" p-id="1843"></path></svg>