<?xml version="1.0" standalone="no"?><!DOCTYPE svg PUBLIC "-//W3C//DTD SVG 1.1//EN" "http://www.w3.org/Graphics/SVG/1.1/DTD/svg11.dtd"><svg t="1753337662060" class="icon" viewBox="0 0 1024 1024" version="1.1" xmlns="http://www.w3.org/2000/svg" p-id="4485" xmlns:xlink="http://www.w3.org/1999/xlink" width="200" height="200"><path d="M884.367054 243.444717c-3.041306-20.879392-21.114103-36.612034-42.694646-35.909888-23.130038 0.758835-41.28936 20.14741-40.499695 43.306289l0.496276 3.889649c0.408756 11.900676 5.761375 22.39905 13.978272 29.768598l-2.106438 2.251641c22.546242 45.150168 35.557821 95.913525 35.557821 149.806702 0 83.749295-31.025698 159.954997-81.790049 218.759217-2.981634 1.75437-6.111454 3.187504-8.684331 5.761375l-35.35394 37.019796c-1.024377 0.818507-1.929409 1.783212-2.952792 2.601719l-139.864276 145.889205c0.439587-0.056689 0.87818-0.203881 1.314783-0.2914l-70.297135 73.645754-70.327965-73.645754c0.175039 0.028842 0.321237 0.059672 0.467434 0.088514l-140.038321-148.930511c-6.578888-5.352619-12.691336-11.257208-18.861468-17.077262l-18.42387-19.300061c-0.232723-0.233717-0.583796-0.321237-0.818507-0.554954-53.454584-59.478519-86.350019-137.728997-86.350019-223.965639 0-185.569398 150.420333-336.020562 335.989731-336.020562 64.127003 0 123.870069 18.306514 174.837307 49.479404l0.732977-0.789665c7.984174 10.23482 20.469641 16.726189 34.446919 16.258755 23.131032-0.759829 41.260518-20.14741 40.500689-43.278442l-0.498265-3.888655c-0.58479-17.164781-11.434237-31.522968-26.406056-37.518061-65.004188-41.522083-142.115917-65.882368-225.04571-65.882368-231.334192 0-418.892672 187.530633-418.892672 418.891677 0 107.434286 40.706559 205.074334 107.230406 279.085085 1.608173 2.544036 2.778747 5.293941 4.972705 7.486904l274.816515 287.755492c0.67231 0.819502 0.934868 1.813048 1.666851 2.515194 4.094525 4.094525 8.830529 7.194509 13.889758 9.24028 15.556609 7.31087 34.534438 4.970715 47.400814-7.894666 3.305854-3.334696 5.439144-7.252192 7.39839-11.171678l267.769198-280.445616c1.695692-1.696687 2.456516-3.860808 3.800141-5.732534 67.491535-74.215626 108.86742-172.55583 108.86742-280.841444 0.000995-68.657137-16.872386-133.223727-46.22825-190.362091zM342.189103 436.236471c0 93.515687 75.795951 169.310643 169.312632 169.310643 93.48585 0 169.309649-75.795951 169.309649-169.310643s-75.823798-169.311638-169.309649-169.311638c-93.516681 0-169.312632 75.795951-169.312632 169.311638zM594.371856 435.621844c0 46.114873-37.369874 83.515578-83.486736 83.515578-46.143714 0-83.514583-37.400705-83.514583-83.515578 0-46.113878 37.370869-83.514583 83.514583-83.514583 46.116862 0 83.486736 37.400705 83.486736 83.514583z" fill="#8a8a8a" p-id="4486"></path></svg>