<?xml version="1.0" standalone="no"?><!DOCTYPE svg PUBLIC "-//W3C//DTD SVG 1.1//EN" "http://www.w3.org/Graphics/SVG/1.1/DTD/svg11.dtd"><svg t="1752224460579" class="icon" viewBox="0 0 1118 1024" version="1.1" xmlns="http://www.w3.org/2000/svg" p-id="13554" xmlns:xlink="http://www.w3.org/1999/xlink" width="218.359375" height="200"><path d="M529.257448 1.965881c44.891762-2.413803 90.405638-0.547461 134.239806 10.103135 38.546197 9.381482 75.835723 26.912661 104.614727 54.646513 27.721409 26.315431 46.45949 60.954751 57.334046 97.33599 9.866731 32.698323 14.134435 66.852394 15.341336 100.906926 2.1774 49.495407-4.566318 99.388967-20.417788 146.346148-14.209089 42.365978-35.34853 82.392807-62.348287 118.002624-21.35096 28.044909-46.29774 53.514265-74.865225 74.267996-20.579538 15.055164-43.087631 27.708967-67.238104 36.05774-24.573512 8.560292-51.212442 12.168554-77.005298 7.813754-37.463718-6.109162-72.028384-24.013609-102.362673-46.322624-31.441652-23.267072-58.764909-51.896768-81.671154-83.562382-38.272467-53.078785-64.127533-115.302649-73.185517-180.189162-4.989356-35.099684-4.504107-70.784156-1.007825-105.983377 4.74051-44.916646 16.498469-90.131908 41.39548-128.304836 19.33531-30.01079 47.118931-54.273244 79.020948-70.174484 39.678445-19.932539 84.122284-28.293755 128.155528-30.943961zM309.875091 669.593973c8.448311-4.130838 16.473584-9.779635 26.016817-11.011421 14.134435-2.127631 29.13983 3.944204 37.762333 15.341336 4.491665 6.183815 7.540024 13.251033 11.334921 19.857886 25.606221 47.380219 51.224885 94.735553 76.818663 142.115772 2.065419 3.944204 4.914702 7.527582 8.634945 10.028481 9.792078 6.955237 24.312224 5.586586 32.8974-2.712418 8.099927-7.552467 10.227558-20.529769 5.250644-30.359174-5.188433-10.140462-10.563499-20.181385-15.826586-30.272078-2.239611-4.329915-4.852491-8.585176-5.735893-13.450109-1.480632-7.51514 0.622114-15.602625 5.549259-21.462941 11.894824-14.221531 23.876744-28.368408 35.808894-42.565054 7.116987-8.560292 17.854678-14.047339 29.002965-14.495262 12.131227-0.758979 24.461531 4.429453 32.437035 13.61186 12.218323 14.321069 24.299781 28.766561 36.443451 43.149842 6.606853 7.589793 8.199465 19.111349 3.695359 28.132004-6.283354 12.355188-12.890207 24.548627-19.235772 36.866489-4.603645 8.722041-3.645589 20.007193 2.326707 27.845832 8.22435 11.198056 25.805298 13.636744 36.692297 4.939587 4.877375-3.633147 7.564909-9.219733 10.339538-14.457934 26.079028-48.226294 52.158056-96.46503 78.224642-144.691325 2.72486-5.026683 5.225759-10.264885 9.157521-14.482819 9.157521-10.327096 23.889186-15.229356 37.426391-12.641361 6.221142 1.03271 11.807728 4.105954 17.294775 7.054776 36.406124 18.986926 72.675383 38.247582 108.670912 57.993487 37.749891 20.791057 75.375358 41.868287 111.905905 64.774532 13.325687 8.49808 26.663815 17.095699 38.894581 27.149065 10.339538 8.211908 17.294775 19.708578 23.540802 31.143037 8.435869 15.863913 15.403548 32.46192 21.786439 49.246562 5.026683 13.462552 10.775018 26.96243 11.571325 41.519902v8.82158c-1.493074 23.739878-13.686513 46.596355-32.8974 60.693463-14.059781 10.538615-31.678056 16.025662-49.221677 15.801701-318.099441 0.012442-636.18644 0.024885-954.285881 0-26.464739 0.460365-52.531324-13.163937-67.300316-35.112126-11.459344-16.548238-16.473584-37.488603-13.474993-57.421143 1.30644-9.916501 5.188433-19.210887 8.535407-28.567484 5.250644-14.258858 11.036306-28.343524 17.456525-42.117133 8.124812-16.56068 16.747315-33.892783 31.690498-45.389453 17.15791-13.624301 35.933317-25.008991 54.559416-36.49322 64.065322-38.496428 130.108967-73.608554 196.252151-108.384739m243.109794 45.352127c-4.367242 1.219344-8.274119 3.75757-11.409575 7.005006-7.851081 7.925735-15.839028 15.714605-23.627898 23.714994-8.672272 9.120194-8.49808 24.859684 0.385711 33.793244 8.274119 8.299004 16.498469 16.635334 24.884568 24.834799 8.958445 8.522965 24.386877 8.535407 33.345322-0.012442 8.361215-8.187023 16.61045-16.510911 24.859684-24.809915 8.883791-8.908676 9.107752-24.623281 0.447923-33.755917-8.000389-8.199465-16.187412-16.237181-24.287339-24.349551-6.221142-6.432661-16.025662-8.983329-24.598396-6.420218z" p-id="13555"></path></svg>